<svg width="113" height="14" fill="none" xmlns="http://www.w3.org/2000/svg"><path d="M5.143 7.286a.568.568 0 00-.17-.402l-4-4a.568.568 0 00-.402-.17.575.575 0 00-.571.572v8c0 .312.259.571.571.571a.568.568 0 00.402-.17l4-4a.568.568 0 00.17-.401zM22.698 5.32a1.99 1.99 0 00-.88-.848c-.373-.203-.816-.304-1.328-.304-.885 0-1.595.293-2.128.88-.533.576-.8 1.35-.8 2.32 0 1.035.277 1.845.832 2.432.565.576 1.339.864 2.32.864.672 0 1.237-.17 1.696-.512.47-.341.81-.832 1.024-1.472h-3.472V6.664h5.952v2.544a5.306 5.306 0 01-1.04 1.904c-.48.587-1.093 1.061-1.84 1.424-.747.363-1.59.544-2.528.544-1.11 0-2.101-.24-2.976-.72a5.313 5.313 0 01-2.032-2.032c-.48-.864-.72-1.85-.72-2.96 0-1.11.24-2.096.72-2.96a5.17 5.17 0 012.032-2.032c.864-.49 1.85-.736 2.96-.736 1.344 0 2.475.325 3.392.976.928.65 1.541 1.552 1.84 2.704h-3.024zm13.148 3.072c0 .256-.016.523-.048.8h-6.193c.043.555.22.981.529 1.28.32.288.709.432 1.168.432.682 0 1.157-.288 1.423-.864h2.913a3.943 3.943 0 01-.816 1.584c-.385.47-.87.837-1.457 1.104-.586.267-1.242.4-1.968.4-.874 0-1.653-.187-2.335-.56a3.983 3.983 0 01-1.6-1.6c-.384-.693-.576-1.504-.576-2.432 0-.928.186-1.739.56-2.432a3.983 3.983 0 011.6-1.6c.682-.373 1.466-.56 2.352-.56.863 0 1.631.181 2.304.544A3.86 3.86 0 0135.27 6.04c.383.672.575 1.456.575 2.352zm-2.8-.72c0-.47-.16-.843-.48-1.12-.32-.277-.72-.416-1.2-.416-.46 0-.849.133-1.168.4-.31.267-.502.645-.576 1.136h3.423zm9.219 3.008V13h-1.392c-.992 0-1.765-.24-2.32-.72-.555-.49-.832-1.285-.832-2.384V6.344h-1.088V4.072h1.088V1.896h2.736v2.176h1.792v2.272h-1.792v3.584c0 .267.064.459.192.576.128.117.341.176.64.176h.976zm6.29-7.536c-.48 0-.874-.139-1.184-.416a1.41 1.41 0 01-.448-1.056c0-.427.15-.779.448-1.056.31-.288.704-.432 1.184-.432.47 0 .854.144 1.153.432.309.277.464.63.464 1.056 0 .416-.155.768-.464 1.056-.3.277-.683.416-1.152.416zm1.36.928V13H47.18V4.072h2.736zm7.423-.096c1.046 0 1.878.341 2.496 1.024.63.672.944 1.6.944 2.784V13h-2.72V8.152c0-.597-.154-1.061-.464-1.392-.31-.33-.725-.496-1.248-.496-.522 0-.938.165-1.248.496-.31.33-.464.795-.464 1.392V13h-2.736V4.072h2.736v1.184c.278-.395.65-.704 1.12-.928.47-.235.998-.352 1.584-.352zm13.708 6.704V13h-1.392c-.992 0-1.765-.24-2.32-.72-.555-.49-.832-1.285-.832-2.384V6.344h-1.088V4.072h1.088V1.896h2.736v2.176h1.792v2.272h-1.792v3.584c0 .267.064.459.192.576.128.117.341.176.64.176h.976zm5.588 2.448c-.874 0-1.664-.187-2.368-.56a4.17 4.17 0 01-1.648-1.6c-.394-.693-.592-1.504-.592-2.432 0-.917.203-1.723.608-2.416a4.111 4.111 0 011.664-1.616c.704-.373 1.493-.56 2.368-.56.875 0 1.664.187 2.368.56a4.11 4.11 0 011.664 1.616c.406.693.608 1.499.608 2.416 0 .917-.208 1.728-.624 2.432a4.114 4.114 0 01-1.68 1.6c-.704.373-1.493.56-2.368.56zm0-2.368c.523 0 .966-.192 1.328-.576.373-.384.56-.933.56-1.648 0-.715-.181-1.264-.544-1.648a1.707 1.707 0 00-1.312-.576c-.533 0-.976.192-1.328.576-.352.373-.528.923-.528 1.648 0 .715.17 1.264.512 1.648.352.384.79.576 1.312.576zm14.94-6.688V13h-2.736v-1.216a3.054 3.054 0 01-1.136.96c-.47.235-.992.352-1.568.352-.683 0-1.286-.15-1.808-.448a3.126 3.126 0 01-1.216-1.328c-.288-.576-.432-1.253-.432-2.032V4.072h2.72V8.92c0 .597.154 1.061.464 1.392.309.33.725.496 1.248.496.533 0 .954-.165 1.264-.496.309-.33.464-.795.464-1.392V4.072h2.736zm1.42 4.464c0-.928.188-1.739.56-2.432a4.012 4.012 0 011.585-1.6c.683-.373 1.461-.56 2.336-.56 1.12 0 2.053.293 2.8.88.757.587 1.253 1.413 1.488 2.48h-2.912c-.245-.683-.72-1.024-1.424-1.024-.502 0-.902.197-1.2.592-.299.384-.448.939-.448 1.664s.15 1.285.448 1.68c.298.384.698.576 1.2.576.704 0 1.178-.341 1.424-1.024h2.912c-.235 1.045-.731 1.867-1.488 2.464-.758.597-1.69.896-2.8.896-.875 0-1.653-.187-2.336-.56a4.012 4.012 0 01-1.584-1.6c-.374-.693-.56-1.504-.56-2.432zm15.72-4.56c1.024 0 1.846.341 2.464 1.024.619.672.928 1.6.928 2.784V13h-2.72V8.152c0-.597-.154-1.061-.464-1.392-.309-.33-.725-.496-1.248-.496-.522 0-.938.165-1.248.496-.309.33-.464.795-.464 1.392V13h-2.736V1.16h2.736v4.112a2.93 2.93 0 011.136-.944 3.632 3.632 0 011.616-.352zM5.719 14.6h8.537v.8H5.72v-.8z" fill="#FFD723"/><path d="M14.25 14.6h98.768v.8H14.25v-.8z" fill="#FFD723"/></svg>